<?xml version="1.0" standalone="no"?>
<!DOCTYPE svg PUBLIC "-//W3C//DTD SVG 20010904//EN"
 "http://www.w3.org/TR/2001/REC-SVG-20010904/DTD/svg10.dtd">
<svg version="1.0" xmlns="http://www.w3.org/2000/svg"
 width="852.000000pt" height="634.000000pt" viewBox="0 0 852.000000 634.000000"
 preserveAspectRatio="xMidYMid meet">

<g transform="translate(0.000000,634.000000) scale(0.100000,-0.100000)"
fill="#000000" stroke="none">
<path d="M2540 6220 l0 -100 920 0 920 0 0 100 0 100 -920 0 -920 0 0 -100z
m1830 0 l0 -90 -258 0 c-141 0 -272 4 -290 9 -20 6 -32 6 -32 0 0 -5 -102 -9
-248 -9 -136 0 -262 4 -280 9 -20 6 -32 6 -32 0 0 -5 -137 -9 -340 -9 l-340 0
0 90 0 90 910 0 910 0 0 -90z"/>
<path d="M3078 6283 c6 -2 10 -9 6 -14 -3 -5 0 -9 5 -9 6 0 11 7 11 15 0 8 -8
15 -17 14 -11 0 -13 -3 -5 -6z"/>
<path d="M2906 6264 c-34 -33 -10 -104 34 -104 34 0 50 12 50 36 0 20 -5 24
-27 23 -17 -1 -21 -3 -10 -6 19 -5 23 -28 7 -38 -6 -3 -19 -3 -31 0 -16 5 -20
14 -17 42 4 46 33 67 53 39 8 -11 18 -17 21 -13 12 11 -17 37 -42 37 -12 0
-30 -7 -38 -16z"/>
<path d="M3425 6270 l-20 -9 20 -1 c14 -1 10 -5 -12 -11 -29 -8 -33 -14 -33
-43 0 -36 12 -46 56 -46 22 0 24 4 24 50 0 28 0 53 1 57 1 11 -14 12 -36 3z
m10 -65 c0 -33 -28 -47 -39 -19 -10 25 3 56 22 52 11 -2 17 -13 17 -33z"/>
<path d="M3615 6270 c3 -5 11 -10 16 -10 6 0 7 5 4 10 -3 6 -11 10 -16 10 -6
0 -7 -4 -4 -10z"/>
<path d="M3937 6274 c-4 -4 -7 -14 -7 -22 0 -13 3 -13 18 1 24 22 32 21 32 -3
0 -11 -9 -28 -21 -38 -11 -9 -25 -25 -30 -34 -9 -16 -5 -18 33 -17 30 2 35 3
16 6 -34 5 -35 10 -2 35 34 27 30 72 -6 76 -14 2 -29 0 -33 -4z"/>
<path d="M3010 6205 c0 -25 5 -45 10 -45 6 0 10 20 10 45 0 25 -4 45 -10 45
-5 0 -10 -20 -10 -45z"/>
<path d="M3057 6244 c-4 -4 -7 -12 -7 -18 0 -6 5 -5 12 2 14 14 38 16 38 2 0
-5 -11 -13 -26 -16 -18 -5 -24 -12 -22 -28 2 -16 10 -21 36 -22 33 -1 33 0 30
40 -3 35 -6 41 -28 44 -14 2 -29 0 -33 -4z m35 -66 c-6 -6 -16 -7 -23 -3 -9 6
-7 12 7 22 21 15 34 -1 16 -19z"/>
<path d="M3140 6206 c0 -25 5 -46 10 -46 6 0 10 18 10 40 0 29 4 40 15 40 11
0 15 -11 15 -40 0 -22 5 -40 11 -40 6 0 9 17 7 43 -3 39 -5 42 -35 45 -33 3
-33 3 -33 -42z"/>
<path d="M3229 6229 c-15 -29 3 -69 31 -69 11 0 20 -5 20 -11 0 -5 5 -7 10 -4
6 3 10 28 10 56 0 48 -1 49 -30 49 -20 0 -33 -7 -41 -21z m46 -25 c0 -19 -5
-29 -15 -29 -16 0 -25 28 -16 51 10 25 31 10 31 -22z"/>
<path d="M3482 6208 c3 -40 5 -43 36 -46 28 -3 32 0 32 21 0 14 7 27 15 31 17
6 21 36 4 36 -5 0 -8 -4 -4 -9 3 -5 1 -12 -5 -16 -5 -3 -10 1 -10 9 0 9 -4 16
-10 16 -5 0 -10 -18 -10 -40 0 -29 -4 -40 -15 -40 -11 0 -15 11 -15 40 0 22
-5 40 -11 40 -6 0 -9 -17 -7 -42z"/>
<path d="M3603 6243 c-19 -7 -16 -70 3 -77 31 -12 44 -5 64 34 23 45 24 50 9
50 -5 0 -7 -4 -4 -10 3 -5 2 -10 -4 -10 -5 0 -13 5 -16 10 -6 10 -31 12 -52 3z
m42 -38 c0 -33 -28 -47 -39 -19 -10 25 3 56 22 52 11 -2 17 -13 17 -33z"/>
<path d="M3700 6206 c0 -25 5 -46 10 -46 6 0 10 18 10 40 0 29 4 40 15 40 11
0 15 -11 15 -40 0 -22 5 -40 11 -40 6 0 9 17 7 43 -3 39 -5 42 -35 45 -33 3
-33 3 -33 -42z"/>
<path d="M3789 6229 c-15 -29 3 -69 31 -69 11 0 20 -5 20 -11 0 -5 5 -7 10 -4
6 3 10 28 10 56 0 48 -1 49 -30 49 -20 0 -33 -7 -41 -21z m46 -25 c0 -19 -5
-29 -15 -29 -16 0 -25 28 -16 51 10 25 31 10 31 -22z"/>
<path d="M1160 6020 l0 -60 33 0 c47 0 57 11 54 56 -3 53 -12 64 -53 64 l-34
0 0 -60z m70 30 c0 -15 -7 -20 -25 -20 -18 0 -25 5 -25 20 0 15 7 20 25 20 18
0 25 -5 25 -20z m0 -55 c0 -20 -5 -25 -25 -25 -20 0 -25 5 -25 25 0 20 5 25
25 25 20 0 25 -5 25 -25z"/>
<path d="M1285 6070 c-2 -4 9 -7 25 -8 17 0 30 2 30 6 0 10 -49 12 -55 2z"/>
<path d="M1590 6071 c0 -8 46 -9 54 0 4 3 -7 6 -24 7 -16 0 -30 -3 -30 -7z"/>
<path d="M1277 6044 c-15 -15 -6 -24 13 -12 14 9 22 10 31 1 8 -8 3 -13 -21
-18 -25 -5 -31 -11 -28 -28 2 -17 10 -22 36 -23 33 -1 33 0 30 40 -3 35 -6 41
-28 44 -14 2 -29 0 -33 -4z m53 -41 c-1 -21 -19 -35 -36 -29 -18 7 -18 8 0 22
22 15 36 18 36 7z"/>
<path d="M1360 6005 c0 -25 5 -45 10 -45 6 0 10 20 10 45 0 25 -4 45 -10 45
-5 0 -10 -20 -10 -45z"/>
<path d="M1454 6036 c-3 -8 -4 -27 -2 -43 2 -20 9 -29 26 -31 12 -2 22 -8 22
-14 0 -6 -11 -8 -25 -6 -13 3 -22 1 -19 -3 8 -13 38 -11 52 3 7 7 12 33 12 58
0 44 -1 46 -30 48 -19 1 -33 -3 -36 -12z m48 -13 c7 -30 -4 -54 -21 -51 -29 6
-27 68 3 68 8 0 16 -8 18 -17z"/>
<path d="M1540 6005 c0 -25 5 -45 10 -45 6 0 10 20 10 45 0 25 -4 45 -10 45
-5 0 -10 -20 -10 -45z"/>
<path d="M1582 6008 c3 -41 5 -43 36 -44 27 -1 32 3 32 21 0 13 7 25 15 29 16
6 21 36 5 36 -5 0 -7 -7 -4 -15 4 -8 1 -15 -4 -15 -6 0 -13 8 -15 18 -3 11 -5
7 -6 -10 -1 -38 -11 -58 -27 -58 -10 0 -14 12 -14 40 0 22 -5 40 -11 40 -6 0
-9 -17 -7 -42z"/>
<path d="M1545 5870 c-3 -5 -2 -10 4 -10 5 0 13 5 16 10 3 6 2 10 -4 10 -5 0
-13 -4 -16 -10z"/>
<path d="M2520 5655 l0 -215 2660 0 2660 0 0 -880 0 -880 -30 0 -30 0 0 815 0
815 -245 0 -245 0 0 -820 0 -820 180 0 180 0 0 -210 0 -210 335 0 335 0 0
-180 0 -180 -160 0 -160 0 0 -795 0 -795 160 0 160 0 0 -255 0 -255 -160 0
c-153 0 -160 -1 -160 -20 0 -19 7 -20 164 -20 90 0 171 3 180 6 15 6 16 144
16 1461 0 1247 -2 1456 -14 1469 -12 11 -58 14 -240 14 l-226 0 0 1085 0 1085
-2680 0 -2680 0 0 -215z m5320 0 l0 -205 -2655 0 -2655 0 0 205 0 205 2655 0
2655 0 0 -205z m-70 -1165 l0 -810 -235 0 -235 0 0 810 0 810 235 0 235 0 0
-810z m372 -830 l178 0 0 -200 0 -200 -330 0 -330 0 0 207 0 206 152 -6 c83
-4 231 -7 330 -7z m178 -1565 l0 -785 -155 0 -155 0 0 785 0 785 155 0 155 0
0 -785z"/>
<path d="M4980 5660 l0 -60 34 0 c41 0 66 22 66 56 0 46 -17 64 -60 64 l-40 0
0 -60z m75 0 c0 -42 -2 -45 -27 -48 -27 -3 -28 -2 -28 48 0 50 1 51 28 48 25
-3 27 -6 27 -48z"/>
<path d="M5115 5710 c-2 -4 9 -7 25 -8 17 0 30 2 30 6 0 10 -49 12 -55 2z"/>
<path d="M5320 5660 c0 -33 4 -60 10 -60 6 0 10 13 10 29 0 25 5 30 28 34 l27
4 -27 2 c-21 1 -28 6 -28 20 0 15 8 21 33 24 28 3 26 4 -10 5 l-43 2 0 -60z"/>
<path d="M5107 5684 c-4 -4 -7 -12 -7 -18 0 -6 5 -5 12 2 14 14 38 16 38 2 0
-5 -11 -13 -26 -16 -18 -5 -24 -12 -22 -28 2 -16 10 -21 36 -22 33 -1 33 0 30
40 -3 35 -6 41 -28 44 -14 2 -29 0 -33 -4z m35 -66 c-6 -6 -16 -7 -23 -3 -9 6
-7 12 7 22 21 15 34 -1 16 -19z"/>
<path d="M5201 5643 c19 -46 19 -48 2 -61 -17 -13 -17 -14 0 -10 19 3 74 118
58 118 -5 0 -15 -14 -22 -32 l-13 -32 -13 32 c-7 18 -17 32 -23 32 -5 0 0 -21
11 -47z"/>
<path d="M7390 4590 l0 -60 34 0 c41 0 66 22 66 56 0 46 -17 64 -60 64 l-40 0
0 -60z m75 0 c0 -42 -2 -45 -27 -48 -27 -3 -28 -2 -28 48 0 50 1 51 28 48 25
-3 27 -6 27 -48z"/>
<path d="M7525 4640 c-2 -4 9 -7 25 -8 17 0 30 2 30 6 0 10 -49 12 -55 2z"/>
<path d="M7517 4614 c-4 -4 -7 -12 -7 -18 0 -6 5 -5 12 2 14 14 38 16 38 2 0
-5 -11 -13 -26 -16 -18 -5 -24 -12 -22 -28 2 -16 10 -21 36 -22 33 -1 33 0 30
40 -3 35 -6 41 -28 44 -14 2 -29 0 -33 -4z m35 -66 c-6 -6 -16 -7 -23 -3 -9 6
-7 12 7 22 21 15 34 -1 16 -19z"/>
<path d="M7611 4573 c19 -46 19 -48 2 -61 -17 -13 -17 -14 0 -10 19 3 74 118
58 118 -5 0 -15 -14 -22 -32 l-13 -32 -13 32 c-7 18 -17 32 -23 32 -5 0 0 -21
11 -47z"/>
<path d="M7490 4390 l0 -60 48 2 c43 1 44 2 10 5 -32 4 -38 8 -38 28 0 19 6
24 33 28 l32 4 -32 1 c-25 2 -33 7 -33 21 0 15 8 21 38 24 34 3 33 4 -10 5
l-48 2 0 -60z"/>
<path d="M7848 3570 c9 -33 21 -60 28 -60 6 0 18 24 26 53 l14 52 14 -52 c13
-50 23 -63 33 -45 13 20 35 112 27 112 -5 0 -15 -21 -22 -47 l-14 -48 -13 48
c-8 26 -19 47 -26 47 -7 0 -18 -21 -26 -47 l-13 -48 -14 48 c-7 26 -17 47 -22
47 -4 0 -1 -27 8 -60z"/>
<path d="M8026 3614 c-36 -35 -10 -104 38 -104 25 0 54 26 42 37 -3 4 -13 -2
-21 -13 -19 -26 -49 -8 -53 33 -4 39 21 62 49 45 26 -16 34 -15 19 3 -16 20
-54 19 -74 -1z"/>
<path d="M7880 3370 c0 -68 17 -82 22 -17 l3 42 23 -42 c12 -24 27 -43 32 -43
6 0 10 27 10 60 0 33 -4 60 -10 60 -5 0 -10 -19 -10 -42 l-1 -43 -25 43 c-14
23 -30 42 -35 42 -5 0 -9 -27 -9 -60z"/>
<path d="M8000 3421 c0 -8 46 -9 54 0 4 3 -7 6 -24 7 -16 0 -30 -3 -30 -7z"/>
<path d="M7992 3358 c3 -40 5 -43 36 -46 28 -3 32 0 32 21 0 14 7 27 15 31 17
6 21 36 4 36 -5 0 -8 -4 -4 -9 3 -5 1 -12 -5 -16 -5 -3 -10 1 -10 9 0 9 -4 16
-10 16 -5 0 -10 -18 -10 -40 0 -29 -4 -40 -15 -40 -11 0 -15 11 -15 40 0 22
-5 40 -11 40 -6 0 -9 -17 -7 -42z"/>
<path d="M8200 2731 c0 -17 -8 -21 -52 -24 l-53 -3 53 -2 c45 -2 52 -5 52 -22
0 -11 5 -20 10 -20 6 0 10 20 10 45 0 25 -4 45 -10 45 -5 0 -10 -9 -10 -19z"/>
<path d="M8133 2653 c23 -3 37 -9 37 -18 0 -8 4 -17 10 -20 6 -4 9 5 8 19 -2
24 -6 26 -48 24 -43 -1 -44 -2 -7 -5z"/>
<path d="M8106 2591 c-3 -5 -5 -21 -4 -35 2 -24 6 -26 48 -24 43 1 44 2 8 5
-32 4 -38 8 -38 28 0 20 6 24 38 28 l37 4 -42 1 c-23 1 -44 -2 -47 -7z"/>
<path d="M8133 2503 c31 -4 37 -8 37 -28 0 -20 -6 -24 -37 -28 -33 -4 -32 -4
7 -3 44 1 45 2 46 34 1 32 1 32 -45 30 -44 -1 -44 -2 -8 -5z"/>
<path d="M8077 2413 c-13 -12 -7 -51 9 -57 9 -3 35 -6 58 -6 36 0 42 3 43 22
3 29 -14 48 -42 48 -27 0 -49 -24 -41 -45 3 -8 1 -15 -5 -15 -7 0 -9 12 -7 30
4 29 -1 37 -15 23z m91 -26 c4 -20 -25 -34 -40 -19 -15 15 -1 44 19 40 10 -2
19 -11 21 -21z"/>
<path d="M8143 2272 c-29 -2 -43 -8 -43 -18 0 -8 5 -14 10 -14 6 0 10 5 10 10
0 6 14 10 30 10 17 0 30 -5 30 -12 0 -9 3 -10 8 -2 4 6 14 13 22 16 23 7 -18
13 -67 10z"/>
<path d="M8106 2222 c-3 -6 -5 -22 -4 -36 2 -25 6 -27 43 -24 37 3 40 5 40 32
0 16 -5 31 -11 33 -7 2 -9 -8 -6 -29 5 -36 -13 -29 -20 7 -3 21 -32 32 -42 17z
m34 -33 c0 -10 -4 -19 -9 -19 -12 0 -23 29 -15 41 8 14 24 0 24 -22z"/>
<path d="M8204 2191 c0 -11 4 -17 8 -15 4 3 8 12 8 20 0 8 -4 14 -8 14 -4 0
-8 -9 -8 -19z"/>
<path d="M8133 2133 c28 -3 37 -9 37 -23 0 -14 -9 -20 -37 -23 l-38 -4 38 -1
c29 -2 37 -6 37 -21 0 -15 -9 -21 -37 -24 -33 -4 -32 -4 7 -3 l45 1 1 53 1 52
-46 -2 c-44 -1 -44 -2 -8 -5z"/>
<path d="M8143 1942 c-29 -2 -43 -8 -43 -18 0 -8 5 -14 10 -14 6 0 10 5 10 10
0 6 14 10 30 10 17 0 30 -5 30 -12 0 -9 3 -10 8 -2 4 6 14 13 22 16 23 7 -18
13 -67 10z"/>
<path d="M8123 1893 c15 -2 37 -2 50 0 12 2 0 4 -28 4 -27 0 -38 -2 -22 -4z"/>
<path d="M8133 1853 c31 -4 37 -8 37 -28 0 -20 -6 -24 -37 -28 -33 -4 -32 -4
7 -3 44 1 45 2 46 34 1 32 1 32 -45 30 -44 -1 -44 -2 -8 -5z"/>
<path d="M8133 1713 c31 -4 37 -8 37 -28 0 -20 -6 -24 -37 -28 -33 -4 -32 -4
7 -3 41 1 45 3 45 26 0 16 7 27 20 32 11 3 -9 6 -45 5 -37 0 -49 -2 -27 -4z"/>
<path d="M8109 1614 c-18 -22 1 -49 36 -49 35 0 54 27 36 49 -8 9 -24 16 -36
16 -12 0 -28 -7 -36 -16z m59 -17 c4 -20 -25 -34 -40 -19 -15 15 -1 44 19 40
10 -2 19 -11 21 -21z"/>
<path d="M8112 1528 c-16 -16 -15 -45 1 -51 8 -3 13 4 12 22 0 19 5 26 20 26
15 0 20 -7 20 -28 -1 -29 18 -32 23 -3 8 37 -48 62 -76 34z"/>
<path d="M1160 5845 c0 -5 5 -17 10 -25 6 -10 4 -22 -6 -37 -17 -27 -7 -31 12
-5 12 16 13 16 19 0 4 -10 12 -18 17 -18 6 0 3 11 -5 24 -14 21 -14 26 -1 45
9 13 11 21 4 21 -6 0 -13 -7 -16 -15 -6 -14 -8 -13 -20 2 -7 10 -13 14 -14 8z"/>
<path d="M1242 5838 c-6 -6 -12 -25 -12 -40 0 -21 6 -29 24 -34 26 -6 46 1 46
17 0 5 -9 4 -20 -3 -17 -11 -22 -10 -30 2 -8 12 -3 16 21 18 25 3 30 7 27 25
-3 25 -37 34 -56 15z m46 -15 c2 -8 -6 -13 -22 -13 -19 0 -24 4 -19 15 6 18
34 16 41 -2z"/>
<path d="M1381 5801 l1 -46 8 38 c4 20 10 40 13 43 13 13 27 -9 28 -44 l2 -37
6 40 c4 26 11 40 21 40 10 0 17 -14 21 -40 l7 -40 -2 45 -1 45 -52 1 -53 1 1
-46z"/>
<path d="M1517 5844 c-15 -15 -6 -24 13 -12 14 9 22 10 31 1 8 -8 3 -13 -21
-18 -25 -5 -31 -11 -28 -28 2 -17 10 -22 36 -23 33 -1 33 0 30 40 -3 35 -6 41
-28 44 -14 2 -29 0 -33 -4z m53 -41 c-1 -21 -19 -35 -36 -29 -18 7 -18 8 0 22
22 15 36 18 36 7z"/>
<path d="M1600 5841 c0 -5 7 -26 16 -47 15 -36 15 -39 -3 -52 -17 -13 -17 -14
0 -10 19 3 74 118 57 118 -4 0 -13 -15 -20 -32 l-12 -33 -14 33 c-14 31 -24
41 -24 23z"/>
<path d="M823 5774 c-10 -10 -13 -406 -13 -1908 0 -1718 1 -1894 16 -1900 9
-3 279 -6 600 -6 l584 0 0 -590 0 -590 23 -5 c12 -2 131 -6 265 -7 l242 -3 0
268 0 267 235 0 235 0 0 800 0 800 -235 0 -235 0 0 190 0 190 235 0 235 0 0
915 0 915 -255 0 -255 0 0 -2150 0 -2150 -223 0 -224 0 -6 2476 c-6 2193 -8
2477 -22 2490 -13 14 -15 -187 -15 -1890 l0 -1906 -585 0 -585 0 -2 1904 c-2
1523 -5 1901 -15 1890z m2177 -1579 l0 -905 -230 0 -230 0 0 905 0 905 230 0
230 0 0 -905z m-6 -1321 c3 -9 6 -364 6 -790 l0 -774 -230 0 -230 0 0 790 0
790 224 0 c197 0 225 -2 230 -16z"/>
<path d="M2636 4344 c-36 -35 -10 -104 38 -104 25 0 54 26 42 37 -3 4 -13 -2
-21 -13 -19 -26 -49 -8 -53 33 -4 39 21 62 49 45 26 -16 34 -15 19 3 -16 20
-54 19 -74 -1z"/>
<path d="M2757 4348 c6 -11 31 -10 37 1 3 5 -5 8 -18 7 -13 0 -22 -4 -19 -8z"/>
<path d="M2747 4324 c-4 -4 -7 -12 -7 -18 0 -6 5 -5 12 2 14 14 38 16 38 2 0
-5 -11 -13 -26 -16 -18 -5 -24 -12 -22 -28 2 -16 10 -21 36 -22 33 -1 33 0 30
40 -3 35 -6 41 -28 44 -14 2 -29 0 -33 -4z m35 -66 c-6 -6 -16 -7 -23 -3 -9 6
-7 12 7 22 21 15 34 -1 16 -19z"/>
<path d="M2830 4286 c0 -25 5 -46 10 -46 6 0 10 18 10 40 0 29 4 40 15 40 11
0 15 -11 15 -40 0 -22 5 -40 11 -40 6 0 9 17 7 43 -3 39 -5 42 -35 45 -33 3
-33 3 -33 -42z"/>
<path d="M2688 4143 c-6 -33 4 -103 16 -103 10 0 11 20 7 108 -1 18 -19 15
-23 -5z"/>
<path d="M2730 4085 c0 -25 5 -45 10 -45 6 0 10 20 10 45 0 25 -4 45 -10 45
-5 0 -10 -20 -10 -45z"/>
<path d="M2770 4086 c0 -25 5 -46 10 -46 6 0 10 18 10 40 0 29 4 40 15 40 11
0 15 -11 15 -40 0 -22 5 -40 11 -40 6 0 9 17 7 43 -3 39 -5 42 -35 45 -33 3
-33 3 -33 -42z"/>
<path d="M2751 2135 c1 -19 18 -51 18 -35 0 8 -4 22 -9 30 -5 8 -9 11 -9 5z"/>
<path d="M3450 4295 l0 -1015 245 0 245 0 0 1015 0 1015 -245 0 -245 0 0
-1015z m480 0 l0 -1005 -235 0 -235 0 0 1005 0 1005 235 0 235 0 0 -1005z"/>
<path d="M3550 4400 l0 -60 34 0 c41 0 66 22 66 56 0 46 -17 64 -60 64 l-40 0
0 -60z m75 0 c0 -42 -2 -45 -27 -48 -27 -3 -28 -2 -28 48 0 50 1 51 28 48 25
-3 27 -6 27 -48z"/>
<path d="M3685 4450 c-2 -4 9 -7 25 -8 17 0 30 2 30 6 0 10 -49 12 -55 2z"/>
<path d="M3677 4424 c-4 -4 -7 -12 -7 -18 0 -6 5 -5 12 2 14 14 38 16 38 2 0
-5 -11 -13 -26 -16 -18 -5 -24 -12 -22 -28 2 -16 10 -21 36 -22 33 -1 33 0 30
40 -3 35 -6 41 -28 44 -14 2 -29 0 -33 -4z m35 -66 c-6 -6 -16 -7 -23 -3 -9 6
-7 12 7 22 21 15 34 -1 16 -19z"/>
<path d="M3771 4383 c19 -46 19 -48 2 -61 -17 -13 -17 -14 0 -10 19 3 74 118
58 118 -5 0 -15 -14 -22 -32 l-13 -32 -13 32 c-7 18 -17 32 -23 32 -5 0 0 -21
11 -47z"/>
<path d="M3656 4244 c-36 -35 -10 -104 38 -104 25 0 54 26 42 37 -3 4 -13 -2
-21 -13 -19 -26 -49 -8 -53 33 -4 39 21 62 49 45 26 -16 34 -15 19 3 -16 20
-54 19 -74 -1z"/>
<path d="M4440 4495 l0 -815 -90 0 -90 0 0 -215 0 -215 335 0 335 0 0 1030 0
1030 -245 0 -245 0 0 -815z m480 -5 l0 -810 -235 0 -235 0 0 810 0 810 235 0
235 0 0 -810z m0 -1025 l0 -205 -325 0 -325 0 0 205 0 205 325 0 325 0 0 -205z"/>
<path d="M4540 4590 l0 -60 34 0 c41 0 66 22 66 56 0 46 -17 64 -60 64 l-40 0
0 -60z m75 0 c0 -42 -2 -45 -27 -48 -27 -3 -28 -2 -28 48 0 50 1 51 28 48 25
-3 27 -6 27 -48z"/>
<path d="M4675 4640 c-2 -4 9 -7 25 -8 17 0 30 2 30 6 0 10 -49 12 -55 2z"/>
<path d="M4667 4614 c-4 -4 -7 -12 -7 -18 0 -6 5 -5 12 2 14 14 38 16 38 2 0
-5 -11 -13 -26 -16 -18 -5 -24 -12 -22 -28 2 -16 10 -21 36 -22 33 -1 33 0 30
40 -3 35 -6 41 -28 44 -14 2 -29 0 -33 -4z m35 -66 c-6 -6 -16 -7 -23 -3 -9 6
-7 12 7 22 21 15 34 -1 16 -19z"/>
<path d="M4761 4573 c19 -46 19 -48 2 -61 -17 -13 -17 -14 0 -10 19 3 74 118
58 118 -5 0 -15 -14 -22 -32 l-13 -32 -13 32 c-7 18 -17 32 -23 32 -5 0 0 -21
11 -47z"/>
<path d="M4640 4390 l0 -60 33 0 c47 0 57 11 54 56 -3 53 -12 64 -53 64 l-34
0 0 -60z m65 30 c0 -8 -10 -16 -22 -18 -18 -3 -23 2 -23 18 0 16 5 21 23 18
12 -2 22 -10 22 -18z m5 -55 c0 -20 -5 -25 -25 -25 -20 0 -25 5 -25 25 0 20 5
25 25 25 20 0 25 -5 25 -25z"/>
<path d="M4458 3570 c9 -33 21 -60 28 -60 6 0 18 24 26 53 l14 52 14 -52 c13
-50 23 -63 33 -45 13 20 35 112 27 112 -5 0 -15 -21 -22 -47 l-14 -48 -13 48
c-8 26 -19 47 -26 47 -7 0 -18 -21 -26 -47 l-13 -48 -14 48 c-7 26 -17 47 -22
47 -4 0 -1 -27 8 -60z"/>
<path d="M4636 3614 c-36 -35 -10 -104 38 -104 25 0 54 26 42 37 -3 4 -13 -2
-21 -13 -19 -26 -49 -8 -53 33 -4 39 21 62 49 45 26 -16 34 -15 19 3 -16 20
-54 19 -74 -1z"/>
<path d="M4430 3370 c0 -68 17 -82 22 -17 l3 42 23 -42 c12 -24 27 -43 32 -43
6 0 10 27 10 60 0 33 -4 60 -10 60 -5 0 -10 -19 -10 -42 l-1 -43 -25 43 c-14
23 -30 42 -35 42 -5 0 -9 -27 -9 -60z"/>
<path d="M4547 3394 c-4 -4 -7 -12 -7 -18 0 -6 5 -5 12 2 14 14 38 16 38 2 0
-5 -11 -13 -26 -16 -18 -5 -24 -12 -22 -28 2 -16 10 -21 36 -22 33 -1 33 0 30
40 -3 35 -6 41 -28 44 -14 2 -29 0 -33 -4z m35 -66 c-6 -6 -16 -7 -23 -3 -9 6
-7 12 7 22 21 15 34 -1 16 -19z"/>
<path d="M4631 3351 l1 -46 8 38 c4 20 10 40 13 43 13 13 27 -9 28 -44 l2 -37
6 39 c8 55 31 60 31 7 0 -23 5 -41 11 -41 6 0 9 17 7 43 l-3 42 -52 1 -53 1 1
-46z"/>
<path d="M6360 4295 l0 -1015 245 0 245 0 0 1015 0 1015 -245 0 -245 0 0
-1015z m480 0 l0 -1005 -235 0 -235 0 0 1005 0 1005 235 0 235 0 0 -1005z"/>
<path d="M6460 4400 l0 -60 34 0 c41 0 66 22 66 56 0 46 -17 64 -60 64 l-40 0
0 -60z m75 0 c0 -42 -2 -45 -27 -48 -27 -3 -28 -2 -28 48 0 50 1 51 28 48 25
-3 27 -6 27 -48z"/>
<path d="M6595 4450 c-2 -4 9 -7 25 -8 17 0 30 2 30 6 0 10 -49 12 -55 2z"/>
<path d="M6587 4424 c-4 -4 -7 -12 -7 -18 0 -6 5 -5 12 2 14 14 38 16 38 2 0
-5 -11 -13 -26 -16 -18 -5 -24 -12 -22 -28 2 -16 10 -21 36 -22 33 -1 33 0 30
40 -3 35 -6 41 -28 44 -14 2 -29 0 -33 -4z m35 -66 c-6 -6 -16 -7 -23 -3 -9 6
-7 12 7 22 21 15 34 -1 16 -19z"/>
<path d="M6681 4383 c19 -46 19 -48 2 -61 -17 -13 -17 -14 0 -10 19 3 74 118
58 118 -5 0 -15 -14 -22 -32 l-13 -32 -13 32 c-7 18 -17 32 -23 32 -5 0 0 -21
11 -47z"/>
<path d="M6571 4204 c-24 -64 -24 -64 -12 -64 5 0 11 9 14 20 3 13 14 20 30
20 17 0 28 -7 32 -20 5 -17 25 -29 25 -16 0 20 -46 116 -55 116 -7 0 -22 -25
-34 -56z m49 -1 c0 -7 -7 -13 -15 -13 -16 0 -19 9 -9 35 5 13 8 14 15 3 5 -7
9 -19 9 -25z"/>
<path d="M408 4353 c-24 -4 -28 -9 -28 -38 0 -56 49 -82 101 -55 28 15 28 90
0 90 -11 0 -25 2 -33 3 -7 2 -25 2 -40 0z m22 -38 c0 -8 5 -15 10 -15 6 0 10
7 10 15 0 8 7 15 16 15 11 0 14 -8 12 -27 -3 -25 -7 -28 -38 -28 -31 0 -35 3
-38 28 -2 19 1 27 12 27 9 0 16 -7 16 -15z"/>
<path d="M980 4350 c0 -5 9 -10 20 -10 17 0 20 -7 20 -50 0 -27 5 -50 10 -50
6 0 10 23 10 50 0 43 3 50 20 50 11 0 20 5 20 10 0 6 -22 10 -50 10 -27 0 -50
-4 -50 -10z"/>
<path d="M1280 4356 c0 -2 7 -6 15 -10 8 -3 15 -1 15 4 0 6 -7 10 -15 10 -8 0
-15 -2 -15 -4z"/>
<path d="M1628 4333 c-2 -16 -1 -43 1 -60 3 -31 6 -33 40 -33 46 0 61 14 61
60 0 46 -15 60 -61 60 -34 0 -38 -3 -41 -27z m77 -33 c0 -31 -3 -35 -27 -38
-23 -3 -28 1 -28 17 0 13 7 21 18 22 16 1 16 2 0 6 -30 8 -22 35 10 31 24 -3
27 -7 27 -38z"/>
<path d="M1750 4300 c0 -47 3 -60 15 -60 9 0 15 9 15 25 0 18 5 25 20 25 15 0
20 -7 20 -25 0 -16 6 -25 15 -25 12 0 15 13 15 60 0 47 -3 60 -15 60 -9 0 -15
-9 -15 -25 0 -18 -5 -25 -20 -25 -15 0 -20 7 -20 25 0 16 -6 25 -15 25 -12 0
-15 -13 -15 -60z"/>
<path d="M1070 4285 c0 -33 4 -45 15 -45 10 0 15 11 15 35 0 24 5 35 15 35 8
0 15 5 15 10 0 6 -13 10 -30 10 -29 0 -30 -2 -30 -45z"/>
<path d="M1142 4288 c3 -42 4 -43 41 -45 29 -1 37 3 37 17 0 10 7 20 15 24 17
6 21 46 4 46 -6 0 -9 -7 -6 -15 4 -8 2 -17 -3 -20 -6 -4 -10 3 -10 14 0 12 -4
21 -10 21 -5 0 -10 -10 -10 -22 0 -30 -15 -52 -29 -44 -6 4 -11 20 -11 37 0
16 -5 29 -11 29 -6 0 -9 -17 -7 -42z"/>
<path d="M1272 4318 c-27 -27 -7 -78 30 -78 9 0 29 12 43 27 26 29 34 63 14
63 -6 0 -9 -7 -5 -15 3 -8 1 -15 -3 -15 -5 0 -11 7 -15 15 -7 18 -47 20 -64 3z
m48 -33 c0 -25 -23 -35 -35 -15 -10 16 2 40 20 40 9 0 15 -9 15 -25z"/>
<path d="M1380 4284 c0 -51 17 -60 22 -11 2 20 8 32 18 32 10 0 16 -12 18 -32
5 -49 24 -40 20 10 -3 41 -4 42 -40 44 l-38 1 0 -44z"/>
<path d="M1484 4316 c-3 -8 -4 -27 -2 -43 2 -23 8 -28 31 -28 15 1 27 -3 27
-7 0 -4 -14 -8 -32 -8 -23 0 -29 -3 -21 -11 6 -6 23 -9 39 -7 28 3 29 6 32 59
l3 56 -36 1 c-22 1 -38 -4 -41 -12z m53 -22 c8 -21 -13 -42 -28 -27 -13 13 -5
43 11 43 6 0 13 -7 17 -16z"/>
<path d="M386 4222 c-3 -4 -4 -22 -4 -40 1 -23 6 -32 18 -32 10 0 20 -7 24
-15 6 -17 46 -21 46 -4 0 6 -9 8 -20 4 -11 -4 -20 -2 -20 4 0 6 9 11 20 11 33
0 23 18 -12 22 -22 2 -34 9 -36 21 -3 14 4 17 32 17 20 0 36 5 36 10 0 12 -77
14 -84 2z"/>
<path d="M1090 4145 c-16 -20 -6 -43 25 -55 26 -10 34 -30 12 -30 -7 0 -18 5
-25 12 -17 17 -27 2 -12 -17 8 -9 25 -15 39 -13 38 4 42 50 6 66 -25 11 -35
32 -15 32 6 0 10 -4 10 -10 0 -5 7 -10 15 -10 18 0 19 12 3 28 -16 16 -43 15
-58 -3z"/>
<path d="M1450 4100 c0 -63 16 -84 22 -27 2 20 8 32 18 32 10 0 16 -12 18 -32
5 -49 24 -40 20 10 -3 39 -5 42 -30 40 -22 -1 -28 3 -28 18 0 10 -4 19 -10 19
-6 0 -10 -27 -10 -60z"/>
<path d="M1182 4088 c3 -42 4 -43 41 -45 29 -1 37 3 37 17 0 10 7 20 15 24 17
6 21 46 4 46 -6 0 -9 -7 -6 -15 4 -8 2 -17 -3 -20 -6 -4 -10 3 -10 14 0 12 -4
21 -10 21 -5 0 -10 -10 -10 -22 0 -30 -15 -52 -29 -44 -6 4 -11 20 -11 37 0
16 -5 29 -11 29 -6 0 -9 -17 -7 -42z"/>
<path d="M1350 4069 c0 -33 4 -59 10 -59 6 0 10 8 10 19 0 14 6 17 25 13 19
-3 27 1 34 19 14 40 -1 64 -43 66 l-36 1 0 -59z m58 13 c2 -14 -2 -22 -12 -22
-19 0 -29 17 -22 36 8 22 30 12 34 -14z"/>
<path d="M1557 4124 c-15 -15 -6 -24 21 -19 l27 5 -28 -12 c-41 -18 -34 -52
11 -55 33 -1 33 -1 30 40 -3 37 -6 42 -28 45 -14 2 -29 0 -33 -4z m38 -54 c-3
-5 -10 -10 -16 -10 -5 0 -9 5 -9 10 0 6 7 10 16 10 8 0 12 -4 9 -10z"/>
<path d="M1640 4084 c0 -50 17 -60 22 -12 4 46 28 49 28 4 0 -44 18 -48 22 -4
4 46 28 49 28 4 0 -20 5 -36 11 -36 6 0 9 17 7 43 l-3 42 -57 1 -58 1 0 -43z"/>
<path d="M392 4098 c-20 -20 -14 -42 19 -71 32 -28 59 -35 59 -16 0 6 -6 9
-14 6 -23 -9 -27 5 -6 20 36 25 19 73 -25 73 -12 0 -26 -5 -33 -12z m56 -25
c5 -17 -26 -29 -40 -15 -6 6 -7 15 -3 22 9 14 37 9 43 -7z"/>
<path d="M491 4076 c-16 -19 -11 -29 8 -17 7 5 12 14 9 21 -3 9 -8 7 -17 -4z"/>
<path d="M1570 4020 c0 -5 7 -10 15 -10 8 0 15 5 15 10 0 6 -7 10 -15 10 -8 0
-15 -4 -15 -10z"/>
<path d="M380 3980 c0 -5 16 -10 35 -10 28 0 35 -4 35 -20 0 -16 -7 -20 -35
-20 -19 0 -35 -5 -35 -11 0 -6 17 -9 43 -7 41 3 42 4 44 41 l1 37 -44 0 c-24
0 -44 -4 -44 -10z"/>
<path d="M1140 3950 c0 -5 9 -10 20 -10 17 0 20 -7 20 -50 0 -27 5 -50 10 -50
6 0 10 23 10 50 0 43 3 50 20 50 11 0 20 5 20 10 0 6 -22 10 -50 10 -27 0 -50
-4 -50 -10z"/>
<path d="M1340 3900 c0 -47 3 -60 15 -60 9 0 15 9 15 25 0 18 5 25 20 25 15 0
20 -7 20 -25 0 -16 6 -25 15 -25 12 0 15 13 15 60 0 47 -3 60 -15 60 -9 0 -15
-9 -15 -25 0 -18 -5 -25 -20 -25 -15 0 -20 7 -20 25 0 16 -6 25 -15 25 -12 0
-15 -13 -15 -60z"/>
<path d="M1476 3944 c-36 -35 -10 -104 38 -104 26 0 53 25 37 34 -5 4 -12 2
-16 -4 -11 -17 -43 -11 -50 10 -9 29 4 60 25 60 10 0 22 -5 25 -10 4 -6 11 -8
16 -4 16 9 -11 34 -37 34 -12 0 -30 -7 -38 -16z"/>
<path d="M1580 3900 c0 -68 17 -82 22 -17 l4 42 8 -42 c5 -24 14 -43 21 -43 7
0 17 19 22 43 l11 42 1 -42 c2 -67 21 -51 21 17 0 52 -3 60 -19 60 -14 0 -20
-10 -26 -42 l-8 -43 -10 43 c-7 31 -15 42 -28 42 -16 0 -19 -8 -19 -60z"/>
<path d="M5668 3953 c12 -2 30 -2 40 0 9 3 -1 5 -23 4 -22 0 -30 -2 -17 -4z"/>
<path d="M5588 3943 c7 -3 16 -2 19 1 4 3 -2 6 -13 5 -11 0 -14 -3 -6 -6z"/>
<path d="M5768 3943 c7 -3 16 -2 19 1 4 3 -2 6 -13 5 -11 0 -14 -3 -6 -6z"/>
<path d="M1240 3869 c0 -33 4 -59 10 -59 6 0 10 8 10 19 0 14 6 17 25 13 19
-3 27 1 34 19 14 40 -1 64 -43 66 l-36 1 0 -59z m58 13 c2 -14 -2 -22 -12 -22
-19 0 -29 17 -22 36 8 22 30 12 34 -14z"/>
<path d="M5871 3916 c2 -2 15 -9 29 -15 24 -11 24 -11 6 3 -16 13 -49 24 -35
12z"/>
<path d="M5576 3894 c-36 -35 -10 -104 38 -104 25 0 54 26 42 37 -3 4 -13 -2
-21 -13 -19 -26 -49 -8 -53 33 -4 39 21 62 49 45 26 -16 34 -15 19 3 -16 20
-54 19 -74 -1z"/>
<path d="M5700 3902 c0 -4 9 -8 20 -9 11 -1 18 2 15 8 -7 11 -35 12 -35 1z"/>
<path d="M5768 3893 c-6 -33 4 -103 16 -103 10 0 11 20 7 108 -1 18 -19 15
-23 -5z"/>
<path d="M357 3883 c-11 -11 -8 -48 5 -61 7 -7 33 -12 59 -12 44 0 47 1 47 28
0 34 -14 52 -43 52 -27 0 -49 -24 -41 -45 3 -8 0 -15 -6 -15 -6 0 -8 11 -4 30
5 28 -2 38 -17 23z m93 -33 c0 -21 -33 -29 -45 -10 -9 15 4 30 26 30 12 0 19
-7 19 -20z"/>
<path d="M5399 3853 l-34 -38 38 34 c34 33 42 41 34 41 -2 0 -19 -17 -38 -37z"/>
<path d="M5930 3886 c0 -2 8 -10 18 -17 15 -13 16 -12 3 4 -13 16 -21 21 -21
13z"/>
<path d="M5684 3867 c-3 -9 -4 -28 -2 -44 3 -24 7 -28 33 -28 28 0 30 2 30 40
0 36 -3 40 -28 43 -17 2 -29 -2 -33 -11z m51 -16 c7 -23 -3 -51 -20 -51 -7 0
-16 7 -19 16 -9 23 2 54 19 54 8 0 16 -8 20 -19z"/>
<path d="M5996 3815 c24 -39 24 -40 24 -28 0 6 -9 21 -21 34 l-20 24 17 -30z"/>
<path d="M380 3746 c0 -9 7 -16 15 -16 9 0 15 -9 15 -25 0 -16 -6 -25 -15 -25
-8 0 -15 -7 -15 -16 0 -11 5 -14 18 -9 9 4 36 14 60 22 23 8 42 21 42 28 0 7
-19 20 -42 28 -24 8 -51 18 -60 22 -13 5 -18 2 -18 -9z m90 -41 c0 -1 -9 -5
-20 -8 -12 -3 -20 0 -20 8 0 8 8 11 20 8 11 -3 20 -7 20 -8z"/>
<path d="M5342 3740 c0 -14 2 -19 5 -12 2 6 2 18 0 25 -3 6 -5 1 -5 -13z"/>
<path d="M6022 3735 c0 -16 2 -22 5 -12 2 9 2 23 0 30 -3 6 -5 -1 -5 -18z"/>
<path d="M5705 3700 c3 -5 11 -10 16 -10 6 0 7 5 4 10 -3 6 -11 10 -16 10 -6
0 -7 -4 -4 -10z"/>
<path d="M5350 3694 c0 -6 7 -19 16 -30 14 -18 14 -18 3 6 -14 31 -19 36 -19
24z"/>
<path d="M6001 3673 c-10 -26 -10 -27 4 -9 8 11 15 23 15 28 0 15 -7 8 -19
-19z"/>
<path d="M5594 3666 c-3 -8 -4 -27 -2 -43 4 -33 37 -43 58 -18 8 10 9 15 1 15
-6 0 -11 -4 -11 -10 0 -18 -28 -11 -35 9 -10 33 14 67 30 41 3 -5 11 -10 17
-10 7 0 6 6 -2 15 -16 19 -49 19 -56 1z"/>
<path d="M5693 3673 c-19 -7 -16 -70 3 -77 31 -12 44 -5 64 34 23 45 24 50 9
50 -5 0 -7 -4 -4 -10 3 -5 2 -10 -4 -10 -5 0 -13 5 -16 10 -6 10 -31 12 -52 3z
m42 -38 c0 -33 -28 -47 -39 -19 -10 25 3 56 22 52 11 -2 17 -13 17 -33z"/>
<path d="M380 3630 c0 -5 16 -10 35 -10 28 0 35 -4 35 -20 0 -16 -7 -20 -35
-20 -19 0 -35 -5 -35 -11 0 -6 17 -9 43 -7 41 3 42 4 44 41 l1 37 -44 0 c-24
0 -44 -4 -44 -10z"/>
<path d="M5426 3599 c6 -11 84 -52 89 -47 2 2 -19 15 -46 29 -27 15 -46 23
-43 18z"/>
<path d="M5920 3589 c-22 -18 -22 -19 -3 -10 12 6 25 16 28 21 9 15 3 12 -25
-11z"/>
<path d="M5568 3533 c6 -2 18 -2 25 0 6 3 1 5 -13 5 -14 0 -19 -2 -12 -5z"/>
<path d="M5778 3533 c6 -2 18 -2 25 0 6 3 1 5 -13 5 -14 0 -19 -2 -12 -5z"/>
<path d="M5653 3523 c20 -2 54 -2 75 0 20 2 3 4 -38 4 -41 0 -58 -2 -37 -4z"/>
<path d="M380 3446 c0 -41 22 -66 56 -66 46 0 64 17 64 60 l0 40 -60 0 -60 0
0 -34z m98 -13 c-3 -25 -7 -28 -38 -28 -31 0 -35 3 -38 28 -3 26 -1 27 38 27
39 0 41 -1 38 -27z"/>
<path d="M386 3352 c-3 -4 -4 -22 -4 -40 1 -23 6 -32 18 -32 10 0 20 -7 24
-15 6 -17 46 -21 46 -4 0 6 -9 8 -20 4 -11 -4 -20 -2 -20 4 0 6 9 11 20 11 33
0 23 18 -12 22 -22 2 -34 9 -36 21 -3 14 4 17 32 17 20 0 36 5 36 10 0 12 -77
14 -84 2z"/>
<path d="M392 3228 c-20 -20 -14 -42 19 -71 32 -28 59 -35 59 -16 0 6 -6 9
-14 6 -23 -9 -27 5 -6 20 36 25 19 73 -25 73 -12 0 -26 -5 -33 -12z m56 -25
c5 -17 -26 -29 -40 -15 -6 6 -7 15 -3 22 9 14 37 9 43 -7z"/>
<path d="M380 3110 c0 -5 16 -10 35 -10 28 0 35 -4 35 -20 0 -16 -7 -20 -35
-20 -19 0 -35 -5 -35 -11 0 -6 17 -9 43 -7 41 3 42 4 44 41 l1 37 -44 0 c-24
0 -44 -4 -44 -10z"/>
<path d="M357 3013 c-11 -11 -8 -48 5 -61 7 -7 33 -12 59 -12 44 0 47 1 47 28
0 34 -14 52 -43 52 -27 0 -49 -24 -41 -45 3 -8 0 -15 -6 -15 -6 0 -8 11 -4 30
5 28 -2 38 -17 23z m93 -33 c0 -21 -33 -29 -45 -10 -9 15 4 30 26 30 12 0 19
-7 19 -20z"/>
<path d="M3440 2090 l0 -820 725 0 725 0 0 820 0 820 -725 0 -725 0 0 -820z
m500 140 l0 -660 -230 0 -230 0 0 660 0 660 230 0 230 0 0 -660z m920 535 l0
-115 -245 0 -245 0 0 -675 0 -675 -450 0 -450 0 0 130 0 130 240 0 240 0 0
660 0 660 455 0 455 0 0 -115z m-10 -790 l0 -665 -235 0 -235 0 0 665 0 665
235 0 235 0 0 -665z"/>
<path d="M3650 2710 c0 -5 11 -10 25 -10 21 0 25 -5 25 -30 0 -25 -4 -30 -25
-30 -14 0 -25 -4 -25 -10 0 -6 27 -10 60 -10 33 0 60 4 60 10 0 6 -11 10 -25
10 -21 0 -25 5 -25 30 0 25 4 30 25 30 14 0 25 5 25 10 0 6 -27 10 -60 10 -33
0 -60 -4 -60 -10z"/>
<path d="M3662 2588 c-28 -28 -3 -72 39 -66 30 4 47 33 33 56 -14 21 -55 27
-72 10z m56 -25 c5 -17 -26 -29 -40 -15 -6 6 -7 15 -3 22 9 14 37 9 43 -7z"/>
<path d="M3753 2555 c0 -21 2 -23 13 -14 11 9 11 15 3 25 -15 19 -16 18 -16
-11z"/>
<path d="M3620 2560 c0 -5 5 -10 10 -10 6 0 10 5 10 10 0 6 -4 10 -10 10 -5 0
-10 -4 -10 -10z"/>
<path d="M3650 2490 c0 -5 20 -10 45 -10 25 0 45 5 45 10 0 6 -20 10 -45 10
-25 0 -45 -4 -45 -10z"/>
<path d="M3750 2490 c0 -5 5 -10 10 -10 6 0 10 5 10 10 0 6 -4 10 -10 10 -5 0
-10 -4 -10 -10z"/>
<path d="M3690 2401 c-22 -4 -36 -12 -38 -23 -2 -10 1 -18 7 -18 6 0 11 5 11
10 0 14 47 12 54 -2 5 -10 7 -10 12 0 3 6 13 12 22 12 15 1 14 3 -2 15 -11 8
-22 14 -25 14 -3 -1 -22 -4 -41 -8z"/>
<path d="M3650 2330 c0 -5 14 -10 31 -10 22 0 32 -5 36 -20 8 -30 22 -24 21
10 -1 29 -3 30 -45 30 -23 0 -43 -4 -43 -10z"/>
<path d="M3656 2262 c-3 -4 -4 -22 -4 -40 1 -23 6 -32 18 -32 10 0 20 -7 24
-15 6 -17 46 -21 46 -4 0 6 -9 8 -20 4 -11 -4 -20 -2 -20 4 0 6 9 11 20 11 33
0 23 18 -12 22 -22 2 -34 9 -36 21 -3 14 4 17 32 17 20 0 36 5 36 10 0 12 -77
14 -84 2z"/>
<path d="M3662 2138 c-20 -20 -14 -42 19 -71 32 -28 59 -35 59 -16 0 6 -6 9
-14 6 -23 -9 -27 5 -6 20 36 25 19 73 -25 73 -12 0 -26 -5 -33 -12z m56 -25
c5 -17 -26 -29 -40 -15 -6 6 -7 15 -3 22 9 14 37 9 43 -7z"/>
<path d="M3761 2116 c-16 -19 -11 -29 8 -17 7 5 12 14 9 21 -3 9 -8 7 -17 -4z"/>
<path d="M3650 2020 c0 -5 16 -10 35 -10 28 0 35 -4 35 -20 0 -16 -7 -20 -35
-20 -19 0 -35 -5 -35 -11 0 -6 17 -9 43 -7 41 3 42 4 44 41 l1 37 -44 0 c-24
0 -44 -4 -44 -10z"/>
<path d="M3627 1923 c-11 -11 -8 -48 5 -61 7 -7 33 -12 59 -12 44 0 47 1 47
28 0 34 -14 52 -43 52 -27 0 -49 -24 -41 -45 3 -8 0 -15 -6 -15 -6 0 -8 11 -4
30 5 28 -2 38 -17 23z m93 -33 c0 -21 -33 -29 -45 -10 -9 15 4 30 26 30 12 0
19 -7 19 -20z"/>
<path d="M3650 1780 c0 -6 27 -10 60 -10 33 0 60 4 60 10 0 6 -27 10 -60 10
-33 0 -60 -4 -60 -10z"/>
<path d="M4210 2780 c0 -45 3 -60 14 -60 9 0 16 12 18 33 l3 32 18 -32 c29
-54 47 -43 47 27 0 47 -3 60 -15 60 -11 0 -15 -11 -15 -37 l-1 -38 -20 38
c-30 58 -49 49 -49 -23z"/>
<path d="M4330 2780 c0 -63 16 -84 22 -27 2 20 8 32 18 32 10 0 16 -12 18 -32
5 -49 24 -40 20 10 -3 39 -5 42 -30 42 -20 -1 -28 4 -28 17 0 10 -4 18 -10 18
-6 0 -10 -27 -10 -60z"/>
<path d="M4445 2830 c3 -5 10 -10 16 -10 5 0 9 5 9 10 0 6 -7 10 -16 10 -8 0
-12 -4 -9 -10z"/>
<path d="M4570 2780 c0 -33 4 -60 10 -60 6 0 10 27 10 60 0 33 -4 60 -10 60
-6 0 -10 -27 -10 -60z"/>
<path d="M4437 2804 c-14 -15 -6 -25 14 -19 15 5 19 4 15 -4 -4 -6 -13 -11
-21 -11 -16 0 -26 -23 -16 -38 3 -6 21 -10 39 -10 32 1 33 2 30 42 -3 35 -6
41 -28 44 -14 2 -29 0 -33 -4z m33 -54 c0 -5 -4 -10 -10 -10 -5 0 -10 5 -10
10 0 6 5 10 10 10 6 0 10 -4 10 -10z"/>
<path d="M4490 2481 c-22 -4 -36 -12 -38 -23 -2 -10 1 -18 7 -18 6 0 11 5 11
10 0 14 47 12 54 -2 5 -10 7 -10 12 0 3 6 13 12 22 12 15 1 14 3 -2 15 -11 8
-22 14 -25 14 -3 -1 -22 -4 -41 -8z"/>
<path d="M4450 2410 c0 -5 14 -10 31 -10 22 0 32 -5 36 -20 8 -30 22 -24 21
10 -1 29 -3 30 -45 30 -23 0 -43 -4 -43 -10z"/>
<path d="M4456 2342 c-3 -4 -4 -22 -4 -40 1 -31 2 -32 45 -32 50 0 59 17 11
22 -22 2 -34 9 -36 21 -3 14 4 17 32 17 20 0 36 5 36 10 0 12 -77 14 -84 2z"/>
<path d="M4486 2242 c-30 -12 -41 -13 -44 -4 -5 17 -22 15 -22 -4 0 -12 93
-64 115 -64 17 0 0 20 -27 31 l-31 13 31 15 c18 8 32 18 32 23 0 11 -7 9 -54
-10z"/>
<path d="M4662 2158 c-28 -28 -1 -88 33 -74 9 3 21 19 26 36 6 16 15 30 20 30
13 0 11 -34 -3 -48 -17 -17 -2 -28 17 -12 19 16 19 54 0 70 -22 18 -42 6 -50
-29 -4 -17 -11 -31 -16 -31 -15 0 -23 30 -10 43 6 6 11 15 11 19 0 12 -14 10
-28 -4z"/>
<path d="M4462 2148 c-16 -16 -15 -33 4 -49 13 -11 14 -9 9 14 -5 17 -3 27 4
27 6 0 11 -11 11 -25 0 -25 23 -35 35 -15 3 6 15 10 26 10 14 0 19 5 17 18 -2
9 -11 16 -20 14 -9 -1 -19 2 -23 8 -9 14 -48 13 -63 -2z m58 -23 c0 -8 -4 -15
-10 -15 -5 0 -10 7 -10 15 0 8 5 15 10 15 6 0 10 -7 10 -15z"/>
<path d="M4591 2146 c-16 -19 -11 -29 8 -17 7 5 12 14 9 21 -3 9 -8 7 -17 -4z"/>
<path d="M4450 2060 c0 -5 16 -10 35 -10 28 0 35 -4 35 -20 0 -16 -7 -20 -35
-20 -19 0 -35 -5 -35 -11 0 -6 17 -9 43 -7 41 3 42 4 44 41 l1 37 -44 0 c-24
0 -44 -4 -44 -10z"/>
<path d="M4656 2052 c-3 -4 -4 -22 -4 -38 1 -29 2 -30 42 -24 37 5 41 8 41 34
0 16 -6 31 -13 34 -9 3 -11 -3 -6 -22 8 -33 -3 -34 -16 -1 -9 24 -34 34 -44
17z m34 -27 c0 -8 -4 -15 -10 -15 -5 0 -10 7 -10 15 0 8 5 15 10 15 6 0 10 -7
10 -15z"/>
<path d="M4771 2032 c-1 -8 -6 -10 -13 -6 -10 5 -10 4 -1 -6 15 -16 28 -8 20
12 -4 11 -6 11 -6 0z"/>
<path d="M4650 1960 c0 -5 16 -10 35 -10 28 0 35 -4 35 -20 0 -16 -7 -20 -35
-20 -19 0 -35 -5 -35 -11 0 -6 17 -9 43 -7 41 3 42 4 44 41 l1 37 -44 0 c-24
0 -44 -4 -44 -10z"/>
<path d="M4490 1921 c-22 -4 -36 -12 -38 -23 -2 -10 1 -18 7 -18 6 0 11 5 11
10 0 14 47 12 54 -2 5 -10 7 -10 12 0 3 6 13 12 22 12 15 1 14 3 -2 15 -11 8
-22 14 -25 14 -3 -1 -22 -4 -41 -8z"/>
<path d="M4650 1860 c0 -5 16 -10 35 -10 28 0 35 -4 35 -20 0 -16 -7 -20 -35
-20 -19 0 -35 -5 -35 -11 0 -6 17 -9 43 -7 39 3 42 5 42 31 -1 19 4 27 17 27
10 0 18 5 18 10 0 6 -27 10 -60 10 -33 0 -60 -4 -60 -10z"/>
<path d="M4450 1850 c0 -5 16 -10 35 -10 28 0 35 -4 35 -20 0 -16 -7 -20 -35
-20 -19 0 -35 -5 -35 -11 0 -6 17 -9 43 -7 39 3 42 5 42 31 -1 19 4 27 17 27
10 0 18 5 18 10 0 6 -27 10 -60 10 -33 0 -60 -4 -60 -10z"/>
<path d="M4462 1748 c-7 -7 -12 -19 -12 -28 0 -40 60 -55 82 -20 7 11 16 20
21 20 4 0 5 -4 2 -10 -3 -5 -1 -10 4 -10 6 0 11 7 11 15 0 8 -6 15 -14 15 -7
0 -19 7 -26 15 -15 18 -51 20 -68 3z m56 -25 c5 -17 -26 -29 -40 -15 -6 6 -7
15 -3 22 9 14 37 9 43 -7z"/>
<path d="M4580 1721 c0 -5 7 -14 15 -21 12 -10 15 -10 15 3 0 8 -7 17 -15 21
-8 3 -15 2 -15 -3z"/>
<path d="M4450 1650 c0 -5 16 -10 35 -10 28 0 35 -4 35 -20 0 -16 -7 -20 -35
-20 -19 0 -35 -5 -35 -11 0 -6 17 -9 43 -7 41 3 42 4 44 41 l1 37 -44 0 c-24
0 -44 -4 -44 -10z"/>
<path d="M4427 1553 c-11 -11 -8 -48 5 -61 7 -7 33 -12 59 -12 44 0 47 1 47
28 0 34 -14 52 -43 52 -27 0 -49 -24 -41 -45 3 -8 0 -15 -6 -15 -6 0 -8 11 -4
30 5 28 -2 38 -17 23z m93 -33 c0 -21 -33 -29 -45 -10 -9 15 4 30 26 30 12 0
19 -7 19 -20z"/>
<path d="M6360 2100 l0 -800 595 0 595 0 0 800 0 800 -595 0 -595 0 0 -800z
m1180 0 l0 -790 -585 0 -585 0 0 790 0 790 585 0 585 0 0 -790z"/>
<path d="M6648 2273 c6 -2 10 -9 6 -14 -3 -5 0 -9 5 -9 6 0 11 7 11 15 0 8 -8
15 -17 14 -11 0 -13 -3 -5 -6z"/>
<path d="M6476 2254 c-34 -33 -10 -104 34 -104 34 0 50 12 50 36 0 20 -5 24
-27 23 -17 -1 -21 -3 -10 -6 19 -5 23 -28 7 -38 -6 -3 -19 -3 -31 0 -16 5 -20
14 -17 42 4 46 33 67 53 39 8 -11 18 -17 21 -13 12 11 -17 37 -42 37 -12 0
-30 -7 -38 -16z"/>
<path d="M6995 2260 l-20 -9 20 -1 c14 -1 10 -5 -12 -11 -29 -8 -33 -14 -33
-43 0 -36 12 -46 56 -46 22 0 24 4 24 50 0 28 0 53 1 57 1 11 -14 12 -36 3z
m10 -65 c0 -33 -28 -47 -39 -19 -10 25 3 56 22 52 11 -2 17 -13 17 -33z"/>
<path d="M7185 2260 c3 -5 11 -10 16 -10 6 0 7 5 4 10 -3 6 -11 10 -16 10 -6
0 -7 -4 -4 -10z"/>
<path d="M6580 2195 c0 -25 5 -45 10 -45 6 0 10 20 10 45 0 25 -4 45 -10 45
-5 0 -10 -20 -10 -45z"/>
<path d="M6627 2234 c-4 -4 -7 -12 -7 -18 0 -6 5 -5 12 2 14 14 38 16 38 2 0
-5 -11 -13 -26 -16 -18 -5 -24 -12 -22 -28 2 -16 10 -21 36 -22 33 -1 33 0 30
40 -3 35 -6 41 -28 44 -14 2 -29 0 -33 -4z m35 -66 c-6 -6 -16 -7 -23 -3 -9 6
-7 12 7 22 21 15 34 -1 16 -19z"/>
<path d="M6710 2196 c0 -25 5 -46 10 -46 6 0 10 18 10 40 0 29 4 40 15 40 11
0 15 -11 15 -40 0 -22 5 -40 11 -40 6 0 9 17 7 43 -3 39 -5 42 -35 45 -33 3
-33 3 -33 -42z"/>
<path d="M6799 2219 c-15 -29 3 -69 31 -69 11 0 20 -5 20 -11 0 -7 -10 -9 -25
-7 -14 3 -25 1 -25 -3 0 -13 44 -11 58 3 7 7 12 34 12 60 0 47 -1 48 -30 48
-20 0 -33 -7 -41 -21z m46 -25 c0 -19 -5 -29 -15 -29 -16 0 -25 28 -16 51 10
25 31 10 31 -22z"/>
<path d="M7052 2198 c3 -40 5 -43 36 -46 28 -3 32 0 32 21 0 14 7 27 15 31 17
6 21 36 4 36 -5 0 -8 -4 -4 -9 3 -5 1 -12 -5 -16 -5 -3 -10 1 -10 9 0 9 -4 16
-10 16 -5 0 -10 -18 -10 -40 0 -29 -4 -40 -15 -40 -11 0 -15 11 -15 40 0 22
-5 40 -11 40 -6 0 -9 -17 -7 -42z"/>
<path d="M7173 2233 c-19 -7 -16 -70 3 -77 31 -12 44 -5 64 34 23 45 24 50 9
50 -5 0 -7 -4 -4 -10 3 -5 2 -10 -4 -10 -5 0 -13 5 -16 10 -6 10 -31 12 -52 3z
m42 -38 c0 -33 -28 -47 -39 -19 -10 25 3 56 22 52 11 -2 17 -13 17 -33z"/>
<path d="M7270 2196 c0 -25 5 -46 10 -46 6 0 10 18 10 40 0 29 4 40 15 40 11
0 15 -11 15 -40 0 -22 5 -40 11 -40 6 0 9 17 7 43 -3 39 -5 42 -35 45 -33 3
-33 3 -33 -42z"/>
<path d="M7359 2219 c-15 -29 3 -69 31 -69 11 0 20 -5 20 -11 0 -7 -10 -9 -25
-7 -14 3 -25 1 -25 -3 0 -13 44 -11 58 3 7 7 12 34 12 60 0 47 -1 48 -30 48
-20 0 -33 -7 -41 -21z m46 -25 c0 -19 -5 -29 -15 -29 -16 0 -25 28 -16 51 10
25 31 10 31 -22z"/>
<path d="M6935 2050 c-10 -11 -13 -20 -7 -20 7 0 12 -16 12 -40 0 -22 5 -40
10 -40 6 0 10 27 10 60 0 33 -2 60 -3 60 -2 0 -12 -9 -22 -20z"/>
<path d="M438 2858 c-32 -11 -58 -26 -58 -33 0 -7 27 -22 60 -33 46 -16 60
-18 60 -8 0 8 -21 19 -47 27 l-48 13 48 14 c28 8 47 19 47 28 0 8 -1 14 -2 13
-2 0 -29 -10 -60 -21z"/>
<path d="M6050 2100 c0 -773 0 -780 20 -780 20 0 20 7 20 780 0 773 0 780 -20
780 -20 0 -20 -7 -20 -780z"/>
<path d="M5140 2090 c0 -773 0 -780 20 -780 20 0 20 7 20 780 0 773 0 780 -20
780 -20 0 -20 -7 -20 -780z"/>
<path d="M386 2752 c-3 -4 -4 -22 -4 -40 1 -23 6 -32 18 -32 10 0 20 -7 24
-15 6 -17 46 -21 46 -4 0 6 -9 8 -20 4 -11 -4 -20 -2 -20 4 0 6 9 11 20 11 33
0 23 18 -12 22 -22 2 -34 9 -36 21 -3 14 4 17 32 17 20 0 36 5 36 10 0 12 -77
14 -84 2z"/>
<path d="M392 2628 c-20 -20 -14 -42 19 -71 32 -28 59 -35 59 -16 0 6 -6 9
-14 6 -23 -9 -27 5 -6 20 36 25 19 73 -25 73 -12 0 -26 -5 -33 -12z m56 -25
c5 -17 -26 -29 -40 -15 -6 6 -7 15 -3 22 9 14 37 9 43 -7z"/>
<path d="M7720 2606 c0 -44 16 -55 70 -53 l45 2 3 43 3 42 -60 0 -61 0 0 -34z
m58 -8 c-2 -22 -9 -34 -20 -36 -15 -3 -18 4 -18 32 0 30 4 36 21 36 17 0 20
-5 17 -32z m52 10 c0 -30 -15 -52 -29 -44 -6 4 -11 20 -11 37 0 22 5 29 20 29
14 0 20 -7 20 -22z"/>
<path d="M7726 2521 c-3 -5 -5 -21 -4 -35 2 -25 6 -27 43 -24 37 3 40 5 40 32
0 16 -6 31 -13 34 -11 3 -11 1 -1 -17 11 -16 11 -23 2 -32 -13 -13 -12 -13
-28 36 -5 16 -31 20 -39 6z m34 -26 c0 -14 -4 -25 -9 -25 -12 0 -23 29 -15 41
10 18 24 9 24 -16z"/>
<path d="M380 2510 c0 -5 16 -10 35 -10 28 0 35 -4 35 -20 0 -16 -7 -20 -35
-20 -19 0 -35 -5 -35 -11 0 -6 17 -9 43 -7 41 3 42 4 44 41 l1 37 -44 0 c-24
0 -44 -4 -44 -10z"/>
<path d="M7823 2490 c-1 -11 2 -20 5 -20 4 0 8 9 9 20 1 11 -2 20 -5 20 -4 0
-8 -9 -9 -20z"/>
<path d="M7743 2433 c15 -2 37 -2 50 0 12 2 0 4 -28 4 -27 0 -38 -2 -22 -4z"/>
<path d="M357 2413 c-11 -11 -8 -48 5 -61 7 -7 33 -12 59 -12 44 0 47 1 47 28
0 34 -14 52 -43 52 -27 0 -49 -24 -41 -45 3 -8 0 -15 -6 -15 -6 0 -8 11 -4 30
5 28 -2 38 -17 23z m93 -33 c0 -21 -33 -29 -45 -10 -9 15 4 30 26 30 12 0 19
-7 19 -20z"/>
<path d="M7693 2334 c-11 -30 11 -49 63 -52 45 -3 50 -1 51 20 3 29 -14 48
-42 48 -27 0 -49 -24 -41 -45 3 -8 1 -15 -5 -15 -7 0 -9 12 -7 30 5 32 -8 41
-19 14z m100 -6 c7 -21 -4 -38 -23 -38 -23 0 -34 16 -26 35 7 18 43 20 49 3z"/>
<path d="M7743 2253 c15 -2 37 -2 50 0 12 2 0 4 -28 4 -27 0 -38 -2 -22 -4z"/>
<path d="M7726 2211 c-3 -5 -5 -21 -4 -35 2 -24 6 -26 48 -24 43 1 44 2 8 5
-21 2 -39 8 -39 14 -5 30 -1 34 36 40 l40 6 -42 2 c-23 0 -44 -3 -47 -8z"/>
<path d="M7824 2185 c3 -23 12 -26 13 -5 1 11 -2 20 -7 20 -4 0 -7 -7 -6 -15z"/>
<path d="M7778 2133 c6 -2 18 -2 25 0 6 3 1 5 -13 5 -14 0 -19 -2 -12 -5z"/>
<path d="M7720 2061 c0 -5 7 -14 16 -19 15 -8 15 -10 0 -15 -9 -4 -16 -11 -16
-16 0 -7 9 -6 25 1 19 9 28 9 37 0 20 -20 32 -13 14 7 -15 16 -15 19 -1 24 8
4 15 12 15 18 0 7 -8 6 -24 -4 -21 -14 -26 -14 -45 -1 -11 8 -21 11 -21 5z"/>
<path d="M7732 1978 c-16 -16 -15 -33 2 -47 11 -9 12 -7 9 13 -3 13 0 27 6 30
7 5 11 -4 11 -24 0 -24 4 -31 16 -28 9 2 22 10 27 20 22 34 -41 66 -71 36z
m59 -41 c-8 -8 -11 -3 -11 19 1 25 2 27 11 11 8 -14 8 -22 0 -30z"/>
<path d="M7755 1831 c26 -4 40 -11 40 -21 0 -10 -14 -17 -40 -21 l-40 -5 40
-5 c27 -3 40 -9 40 -19 0 -10 -14 -17 -40 -21 l-40 -7 45 2 45 1 1 53 1 52
-46 -1 -46 -2 40 -6z"/>
<path d="M7726 1701 c-3 -5 -5 -21 -4 -35 2 -25 6 -27 43 -24 37 3 40 5 40 32
0 16 -6 31 -13 34 -11 3 -11 1 -1 -17 11 -16 11 -23 2 -32 -13 -13 -12 -13
-28 36 -5 16 -31 20 -39 6z m34 -26 c0 -14 -4 -25 -9 -25 -12 0 -23 29 -15 41
10 18 24 9 24 -16z"/>
<path d="M7692 1603 c3 -18 92 -57 112 -49 6 2 -4 10 -23 16 l-33 13 32 14
c18 7 31 16 28 19 -3 3 -23 -2 -43 -10 -47 -20 -55 -20 -55 -1 0 8 -5 15 -11
15 -6 0 -9 -8 -7 -17z"/>
<path d="M3760 1020 c0 -5 9 -10 20 -10 17 0 20 -7 20 -50 0 -27 5 -50 10 -50
6 0 10 23 10 50 0 43 3 50 20 50 11 0 20 5 20 10 0 6 -22 10 -50 10 -27 0 -50
-4 -50 -10z"/>
<path d="M4060 1026 c0 -2 7 -6 15 -10 8 -3 15 -1 15 4 0 6 -7 10 -15 10 -8 0
-15 -2 -15 -4z"/>
<path d="M4408 1003 c-2 -16 -1 -43 1 -60 3 -31 6 -33 40 -33 46 0 61 14 61
60 0 46 -15 60 -61 60 -34 0 -38 -3 -41 -27z m77 -33 c0 -31 -3 -35 -27 -38
-23 -3 -28 1 -28 17 0 13 7 21 18 22 16 1 16 2 0 6 -30 8 -22 35 10 31 24 -3
27 -7 27 -38z"/>
<path d="M4530 970 c0 -47 3 -60 15 -60 9 0 15 9 15 25 0 18 5 25 20 25 15 0
20 -7 20 -25 0 -16 6 -25 15 -25 12 0 15 13 15 60 0 47 -3 60 -15 60 -9 0 -15
-9 -15 -25 0 -18 -5 -25 -20 -25 -15 0 -20 7 -20 25 0 16 -6 25 -15 25 -12 0
-15 -13 -15 -60z"/>
<path d="M4700 970 c0 -47 3 -60 15 -60 9 0 15 9 15 25 0 14 4 25 9 25 5 0 16
-11 25 -25 9 -14 23 -25 31 -25 12 0 10 9 -9 39 l-24 38 21 22 c18 17 19 21 5
21 -9 0 -26 -12 -37 -27 l-20 -28 -1 28 c0 17 -5 27 -15 27 -12 0 -15 -13 -15
-60z"/>
<path d="M4820 970 c0 -63 16 -84 22 -27 2 20 8 32 18 32 10 0 16 -12 18 -32
5 -49 24 -40 20 10 -3 39 -5 42 -30 40 -22 -1 -28 3 -28 18 0 10 -4 19 -10 19
-6 0 -10 -27 -10 -60z"/>
<path d="M5160 970 c0 -47 3 -60 15 -60 9 0 15 9 15 25 0 18 5 25 20 25 15 0
20 -7 20 -25 0 -16 6 -25 15 -25 12 0 15 13 15 60 0 47 -3 60 -15 60 -9 0 -15
-9 -15 -25 0 -18 -5 -25 -20 -25 -15 0 -20 7 -20 25 0 16 -6 25 -15 25 -12 0
-15 -13 -15 -60z"/>
<path d="M5520 1020 c0 -5 9 -10 20 -10 17 0 20 -7 20 -50 0 -27 5 -50 10 -50
6 0 10 23 10 50 0 43 3 50 20 50 11 0 20 5 20 10 0 6 -22 10 -50 10 -27 0 -50
-4 -50 -10z"/>
<path d="M5790 970 c0 -47 3 -60 15 -60 11 0 15 11 15 38 l1 37 20 -37 c30
-59 49 -50 49 22 0 47 -3 60 -15 60 -11 0 -15 -11 -15 -37 l-1 -38 -20 38
c-30 58 -49 49 -49 -23z"/>
<path d="M5910 970 c0 -63 16 -84 22 -27 2 20 8 32 18 32 10 0 16 -12 18 -32
5 -49 24 -40 20 10 -3 39 -5 42 -30 40 -22 -1 -28 3 -28 18 0 10 -4 19 -10 19
-6 0 -10 -27 -10 -60z"/>
<path d="M6010 1020 c0 -5 5 -10 10 -10 6 0 10 5 10 10 0 6 -4 10 -10 10 -5 0
-10 -4 -10 -10z"/>
<path d="M6066 1021 c-3 -5 5 -8 19 -8 14 0 22 3 19 8 -3 5 -11 9 -19 9 -8 0
-16 -4 -19 -9z"/>
<path d="M6338 1003 c-2 -16 -1 -43 1 -60 3 -31 6 -33 40 -33 46 0 61 14 61
60 0 46 -15 60 -61 60 -34 0 -38 -3 -41 -27z m77 -33 c0 -31 -3 -35 -27 -38
-23 -3 -28 1 -28 17 0 13 7 21 18 22 16 1 16 2 0 6 -30 8 -22 35 10 31 24 -3
27 -7 27 -38z"/>
<path d="M6460 970 c0 -47 3 -60 15 -60 9 0 15 9 15 25 0 18 5 25 20 25 15 0
20 -7 20 -25 0 -16 6 -25 15 -25 12 0 15 13 15 60 0 47 -3 60 -15 60 -9 0 -15
-9 -15 -25 0 -18 -5 -25 -20 -25 -15 0 -20 7 -20 25 0 16 -6 25 -15 25 -12 0
-15 -13 -15 -60z"/>
<path d="M6596 1014 c-17 -17 -21 -61 -7 -83 5 -8 29 -17 53 -21 l45 -6 2 47
c2 53 -16 79 -54 79 -13 0 -31 -7 -39 -16z m64 -19 c17 -20 8 -51 -14 -47 -11
2 -15 -1 -11 -7 9 -15 -8 -14 -23 1 -23 23 -7 68 24 68 6 0 17 -7 24 -15z"/>
<path d="M6727 1012 c-35 -38 -9 -102 40 -102 37 0 53 11 53 36 0 19 -5 24
-25 24 -28 0 -34 -16 -7 -23 16 -4 16 -5 -2 -12 -37 -16 -71 30 -46 60 15 18
47 20 52 3 2 -6 10 -8 17 -4 9 6 9 11 0 22 -16 20 -63 17 -82 -4z"/>
<path d="M6900 970 c0 -47 3 -60 15 -60 9 0 15 9 15 25 0 18 5 25 20 25 15 0
20 -7 20 -25 0 -16 6 -25 15 -25 12 0 15 13 15 60 0 47 -3 60 -15 60 -9 0 -15
-9 -15 -25 0 -18 -5 -25 -20 -25 -15 0 -20 7 -20 25 0 16 -6 25 -15 25 -12 0
-15 -13 -15 -60z"/>
<path d="M7036 1014 c-36 -35 -10 -104 38 -104 26 0 53 25 37 34 -5 4 -12 2
-16 -4 -3 -5 -15 -10 -25 -10 -21 0 -34 31 -25 60 7 21 39 27 50 10 4 -6 11
-8 16 -4 16 9 -11 34 -37 34 -12 0 -30 -7 -38 -16z"/>
<path d="M7140 970 c0 -68 17 -82 22 -17 l4 42 8 -42 c5 -24 14 -43 21 -43 7
0 17 19 22 43 l11 42 1 -42 c2 -67 21 -51 21 17 0 52 -3 60 -19 60 -14 0 -20
-10 -26 -42 l-8 -43 -10 43 c-7 31 -15 42 -28 42 -16 0 -19 -8 -19 -60z"/>
<path d="M3850 955 c0 -33 4 -45 15 -45 10 0 15 11 15 35 0 24 5 35 15 35 8 0
15 5 15 10 0 6 -13 10 -30 10 -29 0 -30 -2 -30 -45z"/>
<path d="M3922 958 c3 -42 4 -43 41 -45 29 -1 37 3 37 17 0 10 7 20 15 24 17
6 21 46 4 46 -6 0 -9 -7 -6 -15 4 -8 2 -17 -3 -20 -6 -4 -10 3 -10 14 0 12 -4
21 -10 21 -5 0 -10 -10 -10 -22 0 -30 -15 -52 -29 -44 -6 4 -11 20 -11 37 0
16 -5 29 -11 29 -6 0 -9 -17 -7 -42z"/>
<path d="M4052 988 c-27 -27 -7 -78 30 -78 9 0 29 12 43 27 26 29 34 63 14 63
-6 0 -9 -7 -5 -15 3 -8 1 -15 -3 -15 -5 0 -11 7 -15 15 -7 18 -47 20 -64 3z
m48 -33 c0 -25 -23 -35 -35 -15 -10 16 2 40 20 40 9 0 15 -9 15 -25z"/>
<path d="M4160 954 c0 -51 17 -60 22 -11 2 20 8 32 18 32 10 0 16 -12 18 -32
5 -49 24 -40 20 10 -3 41 -4 42 -40 44 l-38 1 0 -44z"/>
<path d="M4264 986 c-3 -8 -4 -27 -2 -43 2 -23 8 -28 31 -28 15 1 27 -3 27 -7
0 -4 -14 -8 -32 -8 -23 0 -29 -3 -21 -11 6 -6 23 -9 39 -7 28 3 29 6 32 59 l3
56 -36 1 c-22 1 -38 -4 -41 -12z m53 -22 c8 -21 -13 -42 -28 -27 -13 13 -5 43
11 43 6 0 13 -7 17 -16z"/>
<path d="M4932 988 c-16 -16 -15 -53 3 -68 19 -16 45 -10 61 15 26 39 -31 86
-64 53z m45 -24 c8 -21 -13 -42 -28 -27 -13 13 -5 43 11 43 6 0 13 -7 17 -16z"/>
<path d="M5027 994 c-15 -15 -6 -24 21 -19 l27 5 -28 -12 c-41 -18 -34 -52 11
-55 33 -1 33 -1 30 40 -3 37 -6 42 -28 45 -14 2 -29 0 -33 -4z m38 -54 c-3 -5
-10 -10 -16 -10 -5 0 -9 5 -9 10 0 6 7 10 16 10 8 0 12 -4 9 -10z"/>
<path d="M5292 988 c-16 -16 -15 -53 3 -68 19 -16 45 -10 61 15 26 39 -31 86
-64 53z m45 -24 c8 -21 -13 -42 -28 -27 -13 13 -5 43 11 43 6 0 13 -7 17 -16z"/>
<path d="M5392 988 c-6 -6 -12 -21 -12 -33 0 -41 45 -60 71 -29 11 13 9 15
-17 12 -23 -2 -29 1 -29 17 0 15 6 19 23 17 15 -1 22 2 20 10 -6 18 -41 21
-56 6z"/>
<path d="M5622 958 c3 -42 4 -43 41 -45 29 -1 37 3 37 17 0 10 7 20 15 24 17
6 21 46 4 46 -6 0 -9 -7 -6 -15 4 -8 2 -17 -3 -20 -6 -4 -10 3 -10 14 0 12 -4
21 -10 21 -5 0 -10 -10 -10 -22 0 -30 -15 -52 -29 -44 -6 4 -11 20 -11 37 0
16 -5 29 -11 29 -6 0 -9 -17 -7 -42z"/>
<path d="M6010 955 c0 -25 5 -45 10 -45 6 0 10 20 10 45 0 25 -4 45 -10 45 -5
0 -10 -20 -10 -45z"/>
<path d="M6062 992 c-8 -6 -12 -23 -10 -43 3 -30 6 -34 32 -34 16 0 31 6 34
13 3 9 -3 11 -22 6 -16 -4 -26 -2 -26 5 0 6 12 11 26 11 21 0 25 4 22 23 -3
23 -33 34 -56 19z m35 -18 c-3 -3 -12 -4 -19 -1 -8 3 -5 6 6 6 11 1 17 -2 13
-5z"/>
<path d="M6140 954 c0 -51 17 -60 22 -11 2 20 8 32 18 32 10 0 16 -12 18 -32
5 -49 24 -40 20 10 -3 41 -4 42 -40 44 l-38 1 0 -44z"/>
<path d="M6840 950 c0 -5 11 -10 25 -10 14 0 25 5 25 10 0 6 -11 10 -25 10
-14 0 -25 -4 -25 -10z"/>
<path d="M6240 920 c0 -5 5 -10 11 -10 8 0 7 -6 -2 -17 -12 -14 -12 -16 1 -11
21 7 26 48 6 48 -9 0 -16 -4 -16 -10z"/>
<path d="M5310 890 c0 -5 7 -10 15 -10 8 0 15 5 15 10 0 6 -7 10 -15 10 -8 0
-15 -4 -15 -10z"/>
<path d="M5650 890 c0 -5 5 -10 10 -10 6 0 10 5 10 10 0 6 -4 10 -10 10 -5 0
-10 -4 -10 -10z"/>
<path d="M6070 770 c0 -20 7 -20 735 -20 728 0 735 0 735 20 0 20 -7 20 -735
20 -728 0 -735 0 -735 -20z"/>
<path d="M3240 740 c0 -20 7 -20 960 -20 953 0 960 0 960 20 0 20 -7 20 -960
20 -953 0 -960 0 -960 -20z"/>
<path d="M5345 690 c4 -6 11 -8 16 -5 14 9 11 15 -7 15 -8 0 -12 -5 -9 -10z"/>
<path d="M2688 683 c6 -2 18 -2 25 0 6 3 1 5 -13 5 -14 0 -19 -2 -12 -5z"/>
<path d="M7368 683 c6 -2 18 -2 25 0 6 3 1 5 -13 5 -14 0 -19 -2 -12 -5z"/>
<path d="M5206 654 c-36 -35 -10 -104 38 -104 24 0 51 22 40 33 -3 3 -14 1
-24 -5 -27 -17 -50 -3 -50 32 0 35 23 49 50 32 22 -13 34 -4 19 15 -15 18 -54
17 -73 -3z"/>
<path d="M5336 661 c-3 -5 5 -8 19 -8 14 0 22 3 19 8 -3 5 -11 9 -19 9 -8 0
-16 -4 -19 -9z"/>
<path d="M5750 610 c0 -63 16 -84 22 -27 2 20 8 32 18 32 10 0 16 -12 18 -32
5 -49 24 -40 20 10 -3 39 -5 42 -30 40 -22 -1 -28 3 -28 18 0 10 -4 19 -10 19
-6 0 -10 -27 -10 -60z"/>
<path d="M5850 659 c0 -5 5 -7 10 -4 6 3 10 8 10 11 0 2 -4 4 -10 4 -5 0 -10
-5 -10 -11z"/>
<path d="M5990 610 c0 -63 16 -84 22 -27 2 20 8 32 18 32 10 0 16 -12 18 -32
5 -49 24 -40 20 10 -3 39 -5 42 -30 40 -22 -1 -28 3 -28 18 0 10 -4 19 -10 19
-6 0 -10 -27 -10 -60z"/>
<path d="M2557 642 c-46 -51 23 -138 71 -90 20 20 13 32 -7 14 -33 -30 -56
-17 -59 32 -4 47 16 64 49 44 26 -16 34 -15 19 3 -17 20 -53 19 -73 -3z"/>
<path d="M2686 652 c-2 -4 4 -9 15 -9 11 -1 17 2 14 8 -7 11 -22 12 -29 1z"/>
<path d="M3070 600 c0 -33 4 -60 10 -60 6 0 10 18 10 40 0 29 4 40 15 40 11 0
15 -11 15 -40 0 -22 5 -40 11 -40 6 0 9 17 7 43 -2 35 -7 43 -25 45 -13 2 -23
10 -23 18 0 8 -4 14 -10 14 -6 0 -10 -27 -10 -60z"/>
<path d="M7237 642 c-46 -51 23 -138 71 -90 20 20 13 32 -7 14 -33 -30 -56
-17 -59 32 -4 47 16 64 49 44 26 -16 34 -15 19 3 -17 20 -53 19 -73 -3z"/>
<path d="M7366 652 c-2 -4 4 -9 15 -9 11 -1 17 2 14 8 -7 11 -22 12 -29 1z"/>
<path d="M7661 605 c-1 -56 1 -61 21 -62 29 -3 48 14 48 41 0 26 -18 46 -41
46 -10 0 -20 8 -22 18 -3 9 -5 -10 -6 -43z m57 -18 c2 -18 -2 -29 -13 -33 -24
-9 -39 10 -31 41 9 35 40 30 44 -8z"/>
<path d="M7765 650 c-2 -4 7 -7 20 -7 33 0 40 12 9 13 -13 1 -26 -2 -29 -6z"/>
<path d="M8070 651 c0 -8 46 -9 54 0 4 3 -7 6 -24 7 -16 0 -30 -3 -30 -7z"/>
<path d="M5320 626 c-28 -35 11 -93 48 -70 35 22 22 84 -18 84 -10 0 -23 -7
-30 -14z m47 -22 c8 -21 -13 -42 -28 -27 -13 13 -5 43 11 43 6 0 13 -7 17 -16z"/>
<path d="M5410 594 c0 -51 17 -60 22 -11 2 20 8 32 18 32 10 0 16 -12 18 -32
5 -49 24 -40 20 10 -3 41 -4 42 -40 44 l-38 1 0 -44z"/>
<path d="M5514 626 c-3 -8 -4 -27 -2 -43 2 -23 8 -28 31 -28 15 1 27 -3 27 -7
0 -4 -14 -8 -31 -8 -17 0 -28 -4 -24 -10 9 -14 48 -13 63 2 7 7 12 33 12 58 0
47 0 47 -35 48 -22 1 -38 -4 -41 -12z m53 -22 c8 -21 -13 -42 -28 -27 -13 13
-5 43 11 43 6 0 13 -7 17 -16z"/>
<path d="M5672 628 c-16 -16 -15 -53 3 -68 17 -14 47 -10 53 8 3 9 -3 11 -22
6 -23 -5 -26 -3 -26 21 0 24 3 26 26 21 19 -5 25 -3 22 6 -6 18 -40 22 -56 6z"/>
<path d="M5850 595 c0 -25 5 -45 10 -45 6 0 10 20 10 45 0 25 -4 45 -10 45 -5
0 -10 -20 -10 -45z"/>
<path d="M5890 594 c0 -51 17 -60 22 -11 2 20 8 32 18 32 10 0 16 -12 18 -32
5 -49 24 -40 20 10 -3 41 -4 42 -40 44 l-38 1 0 -44z"/>
<path d="M2673 623 c-21 -8 -16 -71 6 -78 30 -9 51 5 51 34 0 41 -23 58 -57
44z m42 -38 c0 -23 -4 -30 -20 -30 -21 0 -31 25 -21 51 11 28 41 12 41 -21z"/>
<path d="M2750 584 c0 -24 5 -44 10 -44 6 0 10 18 10 40 0 29 4 40 15 40 11 0
15 -11 15 -40 0 -22 5 -40 11 -40 6 0 9 17 7 43 -3 40 -5 42 -35 43 -32 1 -33
0 -33 -42z"/>
<path d="M2844 616 c-3 -8 -4 -27 -2 -43 2 -20 9 -29 26 -31 12 -2 22 -8 22
-14 0 -6 -11 -8 -25 -6 -13 3 -22 1 -19 -3 8 -13 38 -11 52 3 7 7 12 33 12 58
0 44 -1 46 -30 48 -19 1 -33 -3 -36 -12z m48 -13 c7 -30 -4 -54 -21 -51 -29 6
-27 68 3 68 8 0 16 -8 18 -17z"/>
<path d="M2981 565 c1 -33 3 -52 6 -42 2 9 12 17 22 17 23 0 41 20 41 46 0 27
-19 44 -48 41 -20 -1 -22 -6 -21 -62z m57 22 c2 -18 -2 -29 -13 -33 -24 -9
-39 10 -31 41 9 35 40 30 44 -8z"/>
<path d="M3162 588 c3 -41 5 -43 36 -44 31 -1 32 0 32 43 0 23 -4 43 -10 43
-5 0 -10 -18 -10 -40 0 -29 -4 -40 -15 -40 -11 0 -15 11 -15 40 0 22 -5 40
-11 40 -6 0 -9 -17 -7 -42z"/>
<path d="M7353 623 c-21 -8 -16 -71 6 -78 30 -9 51 5 51 34 0 41 -23 58 -57
44z m42 -38 c0 -23 -4 -30 -20 -30 -21 0 -31 25 -21 51 11 28 41 12 41 -21z"/>
<path d="M7430 584 c0 -24 5 -44 10 -44 6 0 10 18 10 40 0 29 4 40 15 40 11 0
15 -11 15 -40 0 -22 5 -40 11 -40 6 0 9 17 7 43 -3 40 -5 42 -35 43 -32 1 -33
0 -33 -42z"/>
<path d="M7524 616 c-3 -8 -4 -27 -2 -43 2 -20 9 -29 26 -31 12 -2 22 -8 22
-14 0 -6 -11 -8 -25 -6 -13 3 -22 1 -19 -3 8 -13 38 -11 52 3 7 7 12 33 12 58
0 44 -1 46 -30 48 -19 1 -33 -3 -36 -12z m48 -13 c7 -30 -4 -54 -21 -51 -29 6
-27 68 3 68 8 0 16 -8 18 -17z"/>
<path d="M7757 624 c-15 -15 -6 -24 13 -12 14 9 22 10 31 1 8 -8 3 -13 -21
-18 -25 -5 -31 -11 -28 -28 2 -17 10 -22 36 -23 33 -1 33 0 30 40 -3 35 -6 41
-28 44 -14 2 -29 0 -33 -4z m53 -41 c-1 -19 -19 -35 -34 -30 -21 8 -20 24 2
30 28 7 32 7 32 0z"/>
<path d="M7840 585 c0 -25 5 -45 10 -45 6 0 10 20 10 45 0 25 -4 45 -10 45 -5
0 -10 -20 -10 -45z"/>
<path d="M7934 616 c-3 -8 -4 -27 -2 -43 2 -20 9 -29 26 -31 12 -2 22 -8 22
-14 0 -6 -11 -8 -25 -6 -13 3 -22 1 -19 -3 8 -13 38 -11 52 3 7 7 12 33 12 58
0 44 -1 46 -30 48 -19 1 -33 -3 -36 -12z m48 -13 c7 -30 -4 -54 -21 -51 -29 6
-27 68 3 68 8 0 16 -8 18 -17z"/>
<path d="M8020 585 c0 -25 5 -45 10 -45 6 0 10 20 10 45 0 25 -4 45 -10 45 -5
0 -10 -20 -10 -45z"/>
<path d="M8062 588 c3 -41 5 -43 35 -44 27 -1 32 3 35 26 2 15 1 36 -3 46 -6
16 -8 14 -8 -8 -2 -67 -41 -85 -41 -18 0 22 -5 40 -11 40 -6 0 -9 -17 -7 -42z"/>
<path d="M8145 620 c3 -5 8 -10 11 -10 2 0 4 5 4 10 0 6 -5 10 -11 10 -5 0 -7
-4 -4 -10z"/>
<path d="M8220 625 c0 -5 5 -17 10 -25 6 -10 4 -22 -6 -37 -17 -27 -7 -31 12
-5 12 16 13 16 19 0 4 -10 11 -18 17 -18 5 0 2 10 -6 22 -11 16 -12 26 -5 40
6 11 8 22 5 25 -3 3 -8 -2 -12 -11 -6 -15 -7 -15 -20 1 -7 10 -13 14 -14 8z"/>
<path d="M8302 618 c-7 -7 -12 -25 -12 -40 0 -21 6 -29 24 -34 27 -6 46 1 46
18 0 7 -5 6 -15 -2 -16 -13 -45 -7 -45 10 0 5 14 10 30 10 18 0 30 5 30 13 0
16 -20 37 -35 37 -6 0 -16 -5 -23 -12z m46 -15 c2 -8 -6 -13 -22 -13 -25 0
-33 10 -19 24 10 10 36 3 41 -11z"/>
<path d="M4376 302 c-2 -4 7 -8 20 -8 13 -1 24 1 24 5 0 9 -38 12 -44 3z"/>
<path d="M3338 253 c-2 -16 -1 -43 1 -60 3 -31 6 -33 40 -33 46 0 61 14 61 60
0 46 -15 60 -61 60 -34 0 -38 -3 -41 -27z m77 -33 c0 -31 -3 -35 -27 -38 -23
-3 -28 1 -28 17 0 13 7 21 18 22 16 1 16 2 0 6 -30 8 -22 35 10 31 24 -3 27
-7 27 -38z"/>
<path d="M3600 276 c0 -2 7 -6 15 -10 8 -3 15 -1 15 4 0 6 -7 10 -15 10 -8 0
-15 -2 -15 -4z"/>
<path d="M3950 220 c0 -47 3 -60 15 -60 11 0 15 11 15 38 l1 37 20 -37 c30
-59 49 -50 49 22 0 47 -3 60 -15 60 -11 0 -15 -11 -15 -37 l-1 -38 -20 38
c-30 58 -49 49 -49 -23z"/>
<path d="M4376 271 c-3 -5 5 -8 19 -8 14 0 22 3 19 8 -3 5 -11 9 -19 9 -8 0
-16 -4 -19 -9z"/>
<path d="M4622 220 c11 -33 26 -60 33 -60 7 0 20 19 28 43 8 23 18 50 22 60 5
12 2 17 -8 17 -9 0 -19 -18 -27 -47 l-13 -48 -15 48 c-9 26 -21 47 -28 47 -9
0 -7 -16 8 -60z"/>
<path d="M4737 268 c6 -11 31 -10 37 1 3 5 -5 8 -18 7 -13 0 -22 -4 -19 -8z"/>
<path d="M4976 264 c-36 -35 -10 -104 38 -104 26 0 53 25 37 34 -5 4 -12 2
-16 -4 -11 -17 -43 -11 -50 10 -9 29 4 60 25 60 10 0 22 -5 25 -10 4 -6 11 -8
16 -4 16 9 -11 34 -37 34 -12 0 -30 -7 -38 -16z"/>
<path d="M5100 276 c0 -2 7 -6 15 -10 8 -3 15 -1 15 4 0 6 -7 10 -15 10 -8 0
-15 -2 -15 -4z"/>
<path d="M3462 208 c3 -42 4 -43 41 -45 29 -1 37 3 37 17 0 10 7 20 15 24 17
6 21 46 4 46 -6 0 -9 -7 -6 -15 4 -8 2 -17 -3 -20 -6 -4 -10 3 -10 14 0 12 -4
21 -10 21 -5 0 -10 -10 -10 -22 0 -30 -15 -52 -29 -44 -6 4 -11 20 -11 37 0
16 -5 29 -11 29 -6 0 -9 -17 -7 -42z"/>
<path d="M3592 238 c-27 -27 -7 -78 30 -78 9 0 29 12 43 27 26 29 34 63 14 63
-6 0 -9 -7 -5 -15 3 -8 1 -15 -3 -15 -5 0 -11 7 -15 15 -7 18 -47 20 -64 3z
m48 -33 c0 -25 -23 -35 -35 -15 -10 16 2 40 20 40 9 0 15 -9 15 -25z"/>
<path d="M3700 204 c0 -51 17 -60 22 -11 2 20 8 32 18 32 10 0 16 -12 18 -32
5 -49 24 -40 20 10 -3 41 -4 42 -40 44 l-38 1 0 -44z"/>
<path d="M3804 236 c-3 -8 -4 -27 -2 -43 2 -23 8 -28 31 -28 15 1 27 -3 27 -7
0 -4 -14 -8 -32 -8 -23 0 -29 -3 -21 -11 6 -6 23 -9 39 -7 28 3 29 6 32 59 l3
56 -36 1 c-22 1 -38 -4 -41 -12z m53 -22 c8 -21 -13 -42 -28 -27 -13 13 -5 43
11 43 6 0 13 -7 17 -16z"/>
<path d="M4074 236 c-3 -8 -4 -27 -2 -43 2 -23 8 -28 31 -28 15 1 27 -3 27 -7
0 -4 -14 -8 -32 -8 -23 0 -29 -3 -21 -11 6 -6 23 -9 39 -7 28 3 29 6 32 59 l3
56 -36 1 c-22 1 -38 -4 -41 -12z m53 -22 c8 -21 -13 -42 -28 -27 -13 13 -5 43
11 43 6 0 13 -7 17 -16z"/>
<path d="M4172 208 c3 -42 4 -43 41 -45 l37 -1 0 44 c0 51 -17 60 -22 12 -2
-21 -8 -33 -18 -33 -10 0 -16 12 -18 33 -5 48 -24 39 -20 -10z"/>
<path d="M4265 233 c25 -62 28 -77 17 -81 -17 -5 -15 -22 2 -22 18 0 19 2 45
68 16 41 18 52 7 52 -8 0 -17 -12 -21 -27 l-7 -28 -14 28 c-16 30 -41 38 -29
10z"/>
<path d="M4372 242 c-8 -6 -12 -23 -10 -43 3 -30 6 -34 32 -34 16 0 31 6 34
13 3 9 -3 11 -22 6 -16 -4 -26 -2 -26 5 0 6 12 11 26 11 21 0 25 4 22 23 -3
23 -33 34 -56 19z m35 -18 c-3 -3 -12 -4 -19 -1 -8 3 -5 6 6 6 11 1 17 -2 13
-5z"/>
<path d="M4450 204 c0 -51 17 -60 22 -11 2 20 8 32 18 32 10 0 16 -12 18 -32
5 -49 24 -40 20 10 -3 41 -4 42 -40 44 l-38 1 0 -44z"/>
<path d="M4727 244 c-15 -15 -6 -24 21 -19 l27 5 -28 -12 c-41 -18 -34 -52 11
-55 33 -1 33 -1 30 40 -3 37 -6 42 -28 45 -14 2 -29 0 -33 -4z m38 -54 c-3 -5
-10 -10 -16 -10 -5 0 -9 5 -9 10 0 6 7 10 16 10 8 0 12 -4 9 -10z"/>
<path d="M4810 204 c0 -51 17 -60 22 -11 2 20 8 32 18 32 10 0 16 -12 18 -32
5 -49 24 -40 20 10 -3 41 -4 42 -40 44 l-38 1 0 -44z"/>
<path d="M5082 208 c3 -42 4 -43 41 -45 29 -1 37 3 37 17 0 10 7 20 15 24 17
6 21 46 4 46 -6 0 -9 -7 -6 -15 4 -8 2 -17 -3 -20 -6 -4 -10 3 -10 14 0 12 -4
21 -10 21 -5 0 -10 -10 -10 -22 0 -30 -15 -52 -29 -44 -6 4 -11 20 -11 37 0
16 -5 29 -11 29 -6 0 -9 -17 -7 -42z"/>
</g>
</svg>
